<svg width="24" height="25" viewBox="0 0 24 25" fill="none" xmlns="http://www.w3.org/2000/svg">
<path d="M6 13.9362C6 12.2862 6.67 10.7862 7.76 9.69617L6.34 8.27617C4.9 9.72617 4 11.7262 4 13.9362C4 18.0162 7.05 21.3762 11 21.8662V19.8462C8.17 19.3662 6 16.9062 6 13.9362ZM20 13.9362C20 9.51617 16.42 5.93617 12 5.93617C11.94 5.93617 11.88 5.94617 11.82 5.94617L12.91 4.85617L11.5 3.43617L8 6.93617L11.5 10.4362L12.91 9.02617L11.83 7.94617C11.89 7.94617 11.95 7.93617 12 7.93617C15.31 7.93617 18 10.6262 18 13.9362C18 16.9062 15.83 19.3662 13 19.8462V21.8662C16.95 21.3762 20 18.0162 20 13.9362Z" fill="white"/>
</svg>
